<svg aria-hidden="true" xmlns="http://www.w3.org/2000/svg"><defs><symbol xmlns="http://www.w3.org/2000/svg" viewBox="0 0 22 22" fill="none" id="location"><circle cx="11" cy="11" r="8" stroke="#AEB3B9" stroke-width="2"/><path fill="#AEB3B9" d="M10 0h2v4h-2zM10 18h2v4h-2z"/><path transform="rotate(90 4 10)" fill="#AEB3B9" d="M4 10h2v4H4z"/><path transform="rotate(90 22 10)" fill="#AEB3B9" d="M22 10h2v4h-2z"/></symbol><symbol xmlns="http://www.w3.org/2000/svg" viewBox="0 0 22 20" fill="none" id="star1"><path d="m11 1.618 1.994 6.137.112.346h6.817l-5.22 3.793-.295.213.113.346 1.994 6.137-5.221-3.793-.294-.213-.294.213-5.22 3.793 1.994-6.137.112-.346-.294-.213L2.078 8.1h6.816l.112-.346L11 1.618Z" stroke="#7E8691"/></symbol><symbol viewBox="0 0 12 12" fill="none" id="close1"><path d="m1 1 10 10M1 11 11 1" stroke="#fff" stroke-opacity=".5" stroke-width="1.5"/></symbol><symbol xmlns="http://www.w3.org/2000/svg" viewBox="0 0 28 28" fill="none" id="arrow-left"><circle cx="14" cy="14" r="14" fill="#fff" fill-opacity=".2"/><path d="m12 11 4 4-4 4" stroke="#000" stroke-width="1.5"/></symbol><symbol xmlns="http://www.w3.org/2000/svg" viewBox="0 0 35 35" fill="none" id="cloudy"><g clip-path="url('#clip0_101_2')"><path d="M29.41 22.925c-3.63 0-12.048-2.65-15.782-5.955-1.377-1.219-2.075-2.474-2.075-3.73a5.064 5.064 0 0 1 6.461-4.862 5.054 5.054 0 0 1 4.784-3.406c1.827 0 3.499.994 4.39 2.543a5.064 5.064 0 0 1 5.396 6.01 5.089 5.089 0 0 1 2.416 4.314c0 1.329-.535 2.57-1.506 3.493-.886.842-2.103 1.396-3.428 1.558a5.475 5.475 0 0 1-.657.035Z" fill="#EEE1DC"/><path d="M32.583 13.525a5.064 5.064 0 0 0-5.396-6.01 5.082 5.082 0 0 0-3.91-2.52v16.76c2.41.736 4.663 1.17 6.132 1.17.241 0 .461-.012.657-.035 1.325-.162 2.542-.716 3.428-1.558A4.781 4.781 0 0 0 35 17.84a5.089 5.089 0 0 0-2.417-4.314Z" fill="#E0D2CD"/><path d="M14.57 30.028a5.14 5.14 0 0 1-3.22-1.136 5.152 5.152 0 0 1-1.174-1.349 4.292 4.292 0 0 1-2.233.63 4.301 4.301 0 0 1-4.097-3.03A4.286 4.286 0 0 1 0 20.882a4.291 4.291 0 0 1 3.858-4.263c.222-.7.623-1.337 1.174-1.847a4.271 4.271 0 0 1 2.91-1.14c.789 0 1.555.22 2.216.62a5.153 5.153 0 0 1 1.178-1.368 5.14 5.14 0 0 1 3.234-1.148c1.175 0 2.323.408 3.233 1.148.472.384.87.85 1.178 1.367a4.272 4.272 0 0 1 5.127.521c.55.51.951 1.146 1.173 1.847a4.285 4.285 0 0 1 .012 8.525 4.301 4.301 0 0 1-4.097 3.03 4.293 4.293 0 0 1-2.233-.63 5.15 5.15 0 0 1-1.175 1.349 5.14 5.14 0 0 1-3.218 1.136Z" fill="#FFF4F4"/><path d="M27.69 17.67a4.292 4.292 0 0 0-2.409-1.052 4.277 4.277 0 0 0-1.173-1.847 4.271 4.271 0 0 0-2.912-1.14c-.787 0-1.554.22-2.215.62a5.15 5.15 0 0 0-1.178-1.368 5.139 5.139 0 0 0-3.234-1.148v18.293a5.141 5.141 0 0 0 3.22-1.136c.469-.379.866-.837 1.174-1.349.665.406 1.438.63 2.233.63a4.302 4.302 0 0 0 4.097-3.03 4.285 4.285 0 0 0 2.397-7.474Z" fill="#F6EFEA"/></g><defs><clipPath id="clip0_101_2"><path fill="#fff" d="M0 0h35v35H0z"/></clipPath></defs></symbol><symbol xmlns="http://www.w3.org/2000/svg" viewBox="0 0 2 40" fill="none" id="line1"><path d="M1 0v40" stroke="#27384A"/></symbol><symbol xmlns="http://www.w3.org/2000/svg" viewBox="0 0 20 20" fill="none" id="sunrise"><g clip-path="url('#clip0_101_197')" fill="#FF6B09"><path d="M10 3.19a.586.586 0 0 0 .586-.587V.586a.586.586 0 1 0-1.172 0v2.017c0 .324.262.586.586.586ZM19.414 9.414h-2.017a.586.586 0 0 0 0 1.172h2.017a.586.586 0 1 0 0-1.172ZM3.19 10a.586.586 0 0 0-.587-.586H.586a.586.586 0 0 0 0 1.172h2.017A.586.586 0 0 0 3.19 10ZM15.23 5.356c.15 0 .3-.058.415-.172l1.426-1.427a.586.586 0 1 0-.829-.828l-1.426 1.426a.586.586 0 0 0 .414 1ZM15.645 14.816a.586.586 0 0 0-.829.829l1.426 1.426a.584.584 0 0 0 .829 0 .586.586 0 0 0 0-.829l-1.426-1.426ZM4.355 14.816 2.93 16.242a.586.586 0 0 0 .828.829l1.427-1.427a.586.586 0 0 0-.829-.828ZM4.355 5.184a.584.584 0 0 0 .829 0 .586.586 0 0 0 0-.829L3.758 2.93a.586.586 0 0 0-.83.828l1.427 1.427ZM12.614 3.71a.585.585 0 0 0 .766-.315l.774-1.863a.586.586 0 1 0-1.082-.45l-.774 1.863a.586.586 0 0 0 .316.766ZM18.918 13.072l-1.863-.774a.586.586 0 1 0-.45 1.082l1.863.774a.584.584 0 0 0 .766-.316.586.586 0 0 0-.316-.766ZM7.386 16.29a.586.586 0 0 0-.766.316l-.774 1.862a.586.586 0 1 0 1.082.45l.774-1.863a.586.586 0 0 0-.316-.766ZM1.082 6.928l1.863.774a.584.584 0 0 0 .766-.316.586.586 0 0 0-.317-.766l-1.862-.774a.586.586 0 0 0-.45 1.082ZM16.296 7.4a.586.586 0 0 0 .765.319l1.864-.77a.586.586 0 0 0-.447-1.083l-1.865.77a.586.586 0 0 0-.317.765ZM13.364 16.614a.586.586 0 0 0-1.083.447l.77 1.864a.586.586 0 0 0 1.083-.447l-.77-1.864ZM3.704 12.6a.586.586 0 0 0-.765-.319l-1.864.77a.586.586 0 0 0 .447 1.083l1.864-.77a.586.586 0 0 0 .318-.765ZM6.636 3.387a.586.586 0 1 0 1.083-.448l-.77-1.864a.586.586 0 0 0-1.083.447l.77 1.865Z"/><path d="M10.586 15.398A5.437 5.437 0 0 0 15.43 10 5.436 5.436 0 0 0 10 4.57 5.436 5.436 0 0 0 4.57 10a5.437 5.437 0 0 0 4.844 5.398v4.016a.586.586 0 0 0 1.172 0v-4.016ZM5.742 10A4.263 4.263 0 0 1 10 5.742 4.263 4.263 0 0 1 14.258 10c0 2.149-1.6 3.93-3.672 4.217v-2.236l.133.133a.586.586 0 0 0 .828-.829l-1.136-1.136a.586.586 0 0 0-.822-.006l-1.172 1.139a.586.586 0 0 0 .816.84l.181-.175v2.27A4.264 4.264 0 0 1 5.742 10Z"/></g><defs><clipPath id="clip0_101_197"><path fill="#fff" d="M0 0h20v20H0z"/></clipPath></defs></symbol><symbol xmlns="http://www.w3.org/2000/svg" viewBox="0 0 20 20" fill="none" id="sunset"><g clip-path="url('#clip0_101_215')" fill="#FF6B09"><path d="M10 3.19a.586.586 0 0 0 .586-.587V.586a.586.586 0 1 0-1.172 0v2.017c0 .324.262.586.586.586ZM19.414 9.414h-2.017a.586.586 0 0 0 0 1.172h2.017a.586.586 0 1 0 0-1.172ZM3.19 10a.586.586 0 0 0-.587-.586H.586a.586.586 0 0 0 0 1.172h2.017A.586.586 0 0 0 3.19 10ZM15.23 5.356c.15 0 .3-.058.415-.172l1.426-1.427a.586.586 0 1 0-.829-.828l-1.426 1.426a.586.586 0 0 0 .414 1ZM15.645 14.816a.586.586 0 0 0-.829.829l1.426 1.426a.584.584 0 0 0 .829 0 .586.586 0 0 0 0-.829l-1.426-1.426ZM4.355 14.816 2.93 16.242a.586.586 0 0 0 .829.829l1.426-1.427a.586.586 0 0 0-.829-.828ZM4.355 5.184a.584.584 0 0 0 .829 0 .586.586 0 0 0 0-.829L3.758 2.93a.586.586 0 0 0-.83.828l1.427 1.427ZM12.614 3.71a.585.585 0 0 0 .766-.315l.774-1.863a.586.586 0 1 0-1.082-.45l-.774 1.863a.586.586 0 0 0 .316.766ZM18.918 13.072l-1.863-.774a.586.586 0 1 0-.45 1.082l1.863.774a.585.585 0 0 0 .766-.316.586.586 0 0 0-.316-.766ZM7.386 16.29a.586.586 0 0 0-.766.316l-.774 1.862a.586.586 0 0 0 1.082.45l.775-1.863a.586.586 0 0 0-.317-.766ZM1.082 6.928l1.863.774a.585.585 0 0 0 .766-.316.586.586 0 0 0-.317-.766l-1.862-.774a.586.586 0 0 0-.45 1.082ZM16.296 7.4a.586.586 0 0 0 .765.319l1.864-.77a.586.586 0 0 0-.447-1.083l-1.865.77a.586.586 0 0 0-.317.765ZM13.364 16.614a.586.586 0 0 0-1.083.447l.77 1.864a.586.586 0 0 0 1.083-.447l-.77-1.864ZM3.705 12.599a.586.586 0 0 0-.766-.318l-1.864.77a.586.586 0 0 0 .447 1.083l1.865-.77a.586.586 0 0 0 .318-.765ZM6.636 3.387a.586.586 0 0 0 1.083-.448l-.77-1.864a.586.586 0 0 0-1.083.447l.77 1.865Z"/><path d="m10.719 17.864-.133.133v-2.599A5.437 5.437 0 0 0 15.43 10 5.436 5.436 0 0 0 10 4.57 5.436 5.436 0 0 0 4.57 10a5.437 5.437 0 0 0 4.844 5.398v2.633l-.18-.176a.586.586 0 0 0-.817.84l1.172 1.14a.584.584 0 0 0 .822-.007l1.136-1.135a.586.586 0 0 0-.829-.83ZM5.742 10A4.263 4.263 0 0 1 10 5.742 4.263 4.263 0 0 1 14.258 10c0 2.149-1.6 3.93-3.672 4.217v-1.39a.586.586 0 1 0-1.172 0v1.39A4.264 4.264 0 0 1 5.742 10Z"/></g><defs><clipPath id="clip0_101_215"><path fill="#fff" d="M0 0h20v20H0z"/></clipPath></defs></symbol><symbol xmlns="http://www.w3.org/2000/svg" viewBox="0 0 2 22" fill="none" id="line2"><path opacity=".4" d="M1 0v22" stroke="#fff"/></symbol><symbol xmlns="http://www.w3.org/2000/svg" viewBox="0 0 2 46" fill="none" id="line3"><path opacity=".2" d="M1 0v46" stroke="#fff"/></symbol><symbol xmlns="http://www.w3.org/2000/svg" viewBox="0 0 20 20" fill="none" id="barometer"><path d="M11.556 2.575A1.76 1.76 0 0 0 10 0a1.76 1.76 0 0 0-1.555 2.575c-4.103.737-7.226 4.332-7.226 8.644C1.219 16.06 5.158 20 10 20c4.842 0 8.781-3.94 8.781-8.781 0-4.312-3.123-7.907-7.225-8.644ZM10 1.172a.587.587 0 1 1-.001 1.173A.587.587 0 0 1 10 1.172Zm0 17.656c-4.196 0-7.61-3.413-7.61-7.61C2.39 7.024 5.805 3.61 10 3.61s7.61 3.414 7.61 7.61-3.414 7.61-7.61 7.61Z" fill="#fff" fill-opacity=".54"/><path d="m14.583 6.681-.026-.028-.029-.026A6.432 6.432 0 0 0 10 4.766c-1.77 0-3.375.716-4.542 1.874l-.015.013-.012.013a6.433 6.433 0 0 0-1.884 4.553c0 .323.262.586.586.586h.664a.586.586 0 1 0 0-1.172h-.045A5.256 5.256 0 0 1 5.88 7.919l.032.033a.584.584 0 0 0 .829 0 .586.586 0 0 0 0-.829l-.032-.032a5.256 5.256 0 0 1 2.705-1.12v.045a.586.586 0 1 0 1.172 0V5.97a5.256 5.256 0 0 1 2.704 1.122l-.03.031a.586.586 0 0 0 .828.829l.032-.032a5.257 5.257 0 0 1 1.128 2.705h-.053a.586.586 0 1 0 0 1.172h.673a.586.586 0 0 0 .585-.587 6.432 6.432 0 0 0-1.87-4.529Z" fill="#fff" fill-opacity=".54"/><path d="M12.657 8.562a.586.586 0 0 0-.829 0l-2.446 2.446c-.271-.13-.574-.189-.88-.167a.586.586 0 1 0 .082 1.169.585.585 0 0 1 .625.618.586.586 0 0 0 1.17.068 1.76 1.76 0 0 0-.169-.859l2.447-2.447a.586.586 0 0 0 0-.828ZM13.36 15.43H6.64a.586.586 0 1 0 0 1.172h6.72a.586.586 0 0 0 0-1.172Z" fill="#fff" fill-opacity=".54"/></symbol><symbol xmlns="http://www.w3.org/2000/svg" viewBox="0 0 20 20" fill="none" id="humidity"><g clip-path="url('#clip0_104_328')" fill-rule="evenodd" clip-rule="evenodd" fill="#fff" fill-opacity=".54"><path d="M17.888 5.874a16.96 16.96 0 0 0-1.123-1.699c-.517-.674-.823-.913-1.168-.913-.326 0-.592.229-.89.572-.22.253-.482.604-.758 1.015-.396.589-.775 1.23-1.1 1.853a39.718 39.718 0 0 0-.912-1.652c-.752-1.286-1.554-2.5-2.258-3.418C8.524.126 8.089 0 7.773 0c-.316 0-.75.126-1.905 1.632-.704.918-1.506 2.132-2.258 3.418-.903 1.546-3.005 5.4-3.005 7.782C.605 16.785 3.821 20 7.773 20c3.709 0 6.768-2.83 7.132-6.445a3.801 3.801 0 0 0 4.49-3.733c0-1.191-.945-2.985-1.507-3.948ZM7.773 18.828a6.003 6.003 0 0 1-5.996-5.996c0-1.396 1-3.974 2.675-6.896 1.494-2.608 2.827-4.286 3.321-4.7.495.414 1.827 2.091 3.322 4.7 1.675 2.922 2.675 5.5 2.675 6.896a6.003 6.003 0 0 1-5.997 5.996Zm7.825-6.381c-.232 0-.46-.03-.682-.09-.129-1.29-.74-2.896-1.41-4.328.652-1.455 1.619-2.888 2.091-3.436.298.344.826 1.068 1.414 2.107.759 1.342 1.212 2.509 1.212 3.122a2.628 2.628 0 0 1-2.625 2.625Z"/><path d="M9.382 10.045a.586.586 0 0 0-.8.215L5.95 14.818a.586.586 0 1 0 1.015.586l2.632-4.558a.586.586 0 0 0-.215-.8ZM6.309 11.21a.587.587 0 0 0-1.172 0 .587.587 0 0 0 1.172 0ZM9.629 13.945a.587.587 0 0 0 0 1.172.587.587 0 0 0 0-1.172Z"/></g><defs><clipPath id="clip0_104_328"><path fill="#fff" d="M0 0h20v20H0z"/></clipPath></defs></symbol><symbol xmlns="http://www.w3.org/2000/svg" viewBox="0 0 20 20" fill="none" id="wind"><path d="M15.822 1.652c-.947 0-1.876.327-2.615.92a.586.586 0 0 0 .734.914 3.016 3.016 0 0 1 1.881-.662 3.01 3.01 0 0 1 3.006 3.006 3.01 3.01 0 0 1-3.006 3.006H4.805a.586.586 0 0 0 0 1.171h11.017A4.182 4.182 0 0 0 20 5.83a4.182 4.182 0 0 0-4.178-4.178Z" fill="#fff" fill-opacity=".54"/><path d="M3.682 7.668h6.26a.586.586 0 0 0 0-1.172h-6.26a.586.586 0 0 0 0 1.172ZM9.777 11.183H.586a.586.586 0 0 0 0 1.172h9.191a2.413 2.413 0 0 1 2.41 2.41 2.413 2.413 0 0 1-3.919 1.88.586.586 0 0 0-.733.914c.633.509 1.43.789 2.242.789a3.586 3.586 0 0 0 3.583-3.582 3.586 3.586 0 0 0-3.583-3.583ZM.586 7.668h.79a.586.586 0 0 0 0-1.172h-.79a.586.586 0 0 0 0 1.172Z" fill="#fff" fill-opacity=".54"/><path d="M7.656 14.102a.586.586 0 0 0-.586-.586H3.555a.586.586 0 0 0 0 1.171H7.07a.586.586 0 0 0 .586-.585Z" fill="#fff" fill-opacity=".54"/></symbol></defs></svg>